<?xml version="1.0" encoding="utf-8"?>
<!-- Generated by IcoMoon.io -->
<!DOCTYPE svg PUBLIC "-//W3C//DTD SVG 1.1//EN" "http://www.w3.org/Graphics/SVG/1.1/DTD/svg11.dtd">
<svg version="1.1" xmlns="http://www.w3.org/2000/svg" xmlns:xlink="http://www.w3.org/1999/xlink" width="43" height="32" viewBox="0 0 43 32">
<path fill="#444444" d="M31.266 11.189c2.188 3.048 2.357 6.059 2.301 8.185 0 0-0.171 7.912 4.314 13.090 2.964 3.412-0.818 3.697-0.818 3.697h-9.708c0.009 0.119 0.075 0.224 0.075 0.35 0 3.4-2.758 6.154-6.159 6.154-3.4 0-6.156-2.755-6.156-6.154 0-0.126 0.065-0.23 0.072-0.35h-9.617c0 0-3.741-0.285-0.78-3.697 4.49-5.175 4.321-13.239 4.321-13.239-0.060-2.127 0.114-5.053 2.297-8.103 2.186-3.046 5.676-4.21 5.676-4.21s0.007-2.563 0.003-4.75c-0.003-2.108 1.712-2.162 1.894-2.162h4.7c0.133 0 1.91 0.041 1.906 2.185-0.005 2.185 0.003 4.743 0.003 4.743s3.49 1.215 5.673 4.262z"></path>
</svg>
